<svg width="209" height="36" viewBox="0 0 209 36" fill="none" xmlns="http://www.w3.org/2000/svg">
<path d="M22.6875 2.0625C21.5935 2.0625 20.5443 2.4971 19.7707 3.27068C18.9971 4.04427 18.5625 5.09348 18.5625 6.1875V14.4375C19.6565 14.4375 20.7057 14.8721 21.4793 15.6457C22.2529 16.4193 22.6875 17.4685 22.6875 18.5625V28.875C22.6875 29.969 22.2529 31.0182 21.4793 31.7918C20.7057 32.5654 19.6565 33 18.5625 33H6.1875C5.09348 33 4.04427 32.5654 3.27068 31.7918C2.4971 31.0182 2.0625 29.969 2.0625 28.875V18.5625C2.0625 17.4685 2.4971 16.4193 3.27068 15.6457C4.04427 14.8721 5.09348 14.4375 6.1875 14.4375H16.5V6.1875C16.5 4.54647 17.1519 2.97266 18.3123 1.81228C19.4727 0.651895 21.0465 0 22.6875 0C24.3285 0 25.9023 0.651895 27.0627 1.81228C28.2231 2.97266 28.875 4.54647 28.875 6.1875V14.4375C28.875 14.711 28.7664 14.9733 28.573 15.1667C28.3796 15.3601 28.1173 15.4688 27.8438 15.4688C27.5702 15.4688 27.3079 15.3601 27.1145 15.1667C26.9211 14.9733 26.8125 14.711 26.8125 14.4375V6.1875C26.8125 5.09348 26.3779 4.04427 25.6043 3.27068C24.8307 2.4971 23.7815 2.0625 22.6875 2.0625ZM6.1875 16.5C5.64049 16.5 5.11589 16.7173 4.72909 17.1041C4.3423 17.4909 4.125 18.0155 4.125 18.5625V28.875C4.125 29.422 4.3423 29.9466 4.72909 30.3334C5.11589 30.7202 5.64049 30.9375 6.1875 30.9375H18.5625C19.1095 30.9375 19.6341 30.7202 20.0209 30.3334C20.4077 29.9466 20.625 29.422 20.625 28.875V18.5625C20.625 18.0155 20.4077 17.4909 20.0209 17.1041C19.6341 16.7173 19.1095 16.5 18.5625 16.5H6.1875Z" fill="#F8FAFC"/>
<path d="M43.0227 31V7.72727H47.9432V26.9432H57.9205V31H43.0227ZM81.6591 19.3636C81.6591 21.9015 81.178 24.0606 80.2159 25.8409C79.2614 27.6212 77.9583 28.9811 76.3068 29.9205C74.6629 30.8523 72.8144 31.3182 70.7614 31.3182C68.6932 31.3182 66.8371 30.8485 65.1932 29.9091C63.5492 28.9697 62.25 27.6098 61.2955 25.8295C60.3409 24.0492 59.8636 21.8939 59.8636 19.3636C59.8636 16.8258 60.3409 14.6667 61.2955 12.8864C62.25 11.1061 63.5492 9.75 65.1932 8.81818C66.8371 7.87879 68.6932 7.40909 70.7614 7.40909C72.8144 7.40909 74.6629 7.87879 76.3068 8.81818C77.9583 9.75 79.2614 11.1061 80.2159 12.8864C81.178 14.6667 81.6591 16.8258 81.6591 19.3636ZM76.6705 19.3636C76.6705 17.7197 76.4242 16.3333 75.9318 15.2045C75.447 14.0758 74.7614 13.2197 73.875 12.6364C72.9886 12.053 71.9508 11.7614 70.7614 11.7614C69.572 11.7614 68.5341 12.053 67.6477 12.6364C66.7614 13.2197 66.072 14.0758 65.5795 15.2045C65.0947 16.3333 64.8523 17.7197 64.8523 19.3636C64.8523 21.0076 65.0947 22.3939 65.5795 23.5227C66.072 24.6515 66.7614 25.5076 67.6477 26.0909C68.5341 26.6742 69.572 26.9659 70.7614 26.9659C71.9508 26.9659 72.9886 26.6742 73.875 26.0909C74.7614 25.5076 75.447 24.6515 75.9318 23.5227C76.4242 22.3939 76.6705 21.0076 76.6705 19.3636ZM105.838 15.875H100.861C100.77 15.2311 100.584 14.6591 100.304 14.1591C100.024 13.6515 99.6638 13.2197 99.2244 12.8636C98.785 12.5076 98.2775 12.2348 97.7017 12.0455C97.1335 11.8561 96.5161 11.7614 95.8494 11.7614C94.6449 11.7614 93.5956 12.0606 92.7017 12.6591C91.8078 13.25 91.1146 14.1136 90.6222 15.25C90.1297 16.3788 89.8835 17.75 89.8835 19.3636C89.8835 21.0227 90.1297 22.4167 90.6222 23.5455C91.1222 24.6742 91.8191 25.5265 92.7131 26.1023C93.607 26.678 94.6411 26.9659 95.8153 26.9659C96.4744 26.9659 97.0843 26.8788 97.6449 26.7045C98.2131 26.5303 98.7169 26.2765 99.1562 25.9432C99.5956 25.6023 99.9593 25.1894 100.247 24.7045C100.543 24.2197 100.747 23.6667 100.861 23.0455L105.838 23.0682C105.709 24.1364 105.387 25.1667 104.872 26.1591C104.365 27.1439 103.679 28.0265 102.815 28.8068C101.959 29.5795 100.937 30.1932 99.7472 30.6477C98.5653 31.0947 97.2282 31.3182 95.7358 31.3182C93.66 31.3182 91.804 30.8485 90.1676 29.9091C88.5388 28.9697 87.2509 27.6098 86.304 25.8295C85.3646 24.0492 84.8949 21.8939 84.8949 19.3636C84.8949 16.8258 85.3722 14.6667 86.3267 12.8864C87.2813 11.1061 88.5767 9.75 90.2131 8.81818C91.8494 7.87879 93.6903 7.40909 95.7358 7.40909C97.0843 7.40909 98.3343 7.59848 99.4858 7.97727C100.645 8.35606 101.671 8.90909 102.565 9.63636C103.459 10.3561 104.187 11.2386 104.747 12.2841C105.315 13.3295 105.679 14.5265 105.838 15.875ZM109.366 31V7.72727H114.287V17.9886H114.594L122.969 7.72727H128.866L120.23 18.1477L128.969 31H123.082L116.707 21.4318L114.287 24.3864V31H109.366ZM131.429 31V7.72727H140.611C142.376 7.72727 143.88 8.06439 145.122 8.73864C146.365 9.4053 147.312 10.3333 147.963 11.5227C148.622 12.7045 148.952 14.0682 148.952 15.6136C148.952 17.1591 148.618 18.5227 147.952 19.7045C147.285 20.8864 146.319 21.8068 145.054 22.4659C143.796 23.125 142.274 23.4545 140.486 23.4545H134.634V19.5114H139.69C140.637 19.5114 141.418 19.3485 142.031 19.0227C142.652 18.6894 143.115 18.2311 143.418 17.6477C143.728 17.0568 143.884 16.3788 143.884 15.6136C143.884 14.8409 143.728 14.1667 143.418 13.5909C143.115 13.0076 142.652 12.5568 142.031 12.2386C141.41 11.9129 140.622 11.75 139.668 11.75H136.349V31H131.429ZM157.068 7.72727V31H152.148V7.72727H157.068ZM181.651 15.875H176.673C176.582 15.2311 176.397 14.6591 176.116 14.1591C175.836 13.6515 175.476 13.2197 175.037 12.8636C174.598 12.5076 174.09 12.2348 173.514 12.0455C172.946 11.8561 172.329 11.7614 171.662 11.7614C170.457 11.7614 169.408 12.0606 168.514 12.6591C167.62 13.25 166.927 14.1136 166.435 15.25C165.942 16.3788 165.696 17.75 165.696 19.3636C165.696 21.0227 165.942 22.4167 166.435 23.5455C166.935 24.6742 167.632 25.5265 168.526 26.1023C169.42 26.678 170.454 26.9659 171.628 26.9659C172.287 26.9659 172.897 26.8788 173.457 26.7045C174.026 26.5303 174.529 26.2765 174.969 25.9432C175.408 25.6023 175.772 25.1894 176.06 24.7045C176.355 24.2197 176.56 23.6667 176.673 23.0455L181.651 23.0682C181.522 24.1364 181.2 25.1667 180.685 26.1591C180.177 27.1439 179.491 28.0265 178.628 28.8068C177.772 29.5795 176.749 30.1932 175.56 30.6477C174.378 31.0947 173.041 31.3182 171.548 31.3182C169.473 31.3182 167.616 30.8485 165.98 29.9091C164.351 28.9697 163.063 27.6098 162.116 25.8295C161.177 24.0492 160.707 21.8939 160.707 19.3636C160.707 16.8258 161.185 14.6667 162.139 12.8864C163.094 11.1061 164.389 9.75 166.026 8.81818C167.662 7.87879 169.503 7.40909 171.548 7.40909C172.897 7.40909 174.147 7.59848 175.298 7.97727C176.457 8.35606 177.484 8.90909 178.378 9.63636C179.272 10.3561 179.999 11.2386 180.56 12.2841C181.128 13.3295 181.491 14.5265 181.651 15.875ZM185.179 31V7.72727H190.099V17.9886H190.406L198.781 7.72727H204.679L196.043 18.1477L204.781 31H198.895L192.52 21.4318L190.099 24.3864V31H185.179Z" fill="#F8FAFC"/>
</svg>
